<?xml version="1.0" encoding="UTF-8"?>
<svg width="32px" height="32px" viewBox="0 0 32 32" version="1.1" xmlns="http://www.w3.org/2000/svg" xmlns:xlink="http://www.w3.org/1999/xlink">
    <!-- Generator: sketchtool 52.2 (67145) - http://www.bohemiancoding.com/sketch -->
    <title>B57A501F-F230-429F-A162-86D5270C550D</title>
    <desc>Created with sketchtool.</desc>
    <g id="Desktop-/-English" stroke="none" stroke-width="1" fill="none" fill-rule="evenodd">
        <g id="10_02_1" transform="translate(-1281.000000, -43.000000)">
            <g id="Menu" transform="translate(220.000000, 30.000000)">
                <g id="Username" transform="translate(1049.000000, 6.000000)">
                    <g id="ico_charity-avatar" transform="translate(12.000000, 7.000000)">
                        <circle id="Oval" fill="#C1395B" cx="16" cy="16" r="16"></circle>
                        <g id="Group-4" transform="translate(4.800000, 6.400000)" fill-rule="nonzero">
                            <path d="M22.5770751,7.88869565 L22.5505138,7.88869565 C22.125817,7.54594651 21.5749168,7.40097277 21.0365217,7.49027668 C21.3533966,6.39389839 21.4079887,5.23836525 21.1958893,4.11699605 C20.7177866,1.62023715 18.9116206,0.0265612648 16.6273518,0.0265612648 C15.4852174,0.0265612648 14.2633992,0.451541502 13.0681423,1.24837945 C11.8728854,0.424980237 10.6245059,3.01980663e-14 9.45581028,3.01980663e-14 C7.14498024,3.01980663e-14 5.36537549,1.62023715 4.88727273,4.11699605 C4.51541502,6.00284585 4.99351779,8.07462451 6.16221344,9.90735178 C6.00706856,10.0047819 5.86435913,10.1207333 5.7372332,10.2526482 L2.06057393e-13,16.8929644 L5.20600791,22.0989723 L8.04806324,18.3272727 L16.653913,17.2382609 C17.2303213,17.1669449 17.7553009,16.8710473 18.1147826,16.4148617 L22.869249,10.5182609 C23.506194,9.70899788 23.3761279,8.53840332 22.5770751,7.88869565 Z" id="Shape" fill="#FBC605"></path>
                            <path d="M19.6470199,11.1902981 L15.6486546,15.9226018 C15.4935666,16.1085792 15.2680367,16.2303298 15.0196982,16.2621392 L7.35990848,17.1746462 L5.3382631,19.6787352 L2.26086957,16.7714455 L6.55125033,12.081584 C6.69545437,11.9379629 6.88424276,11.841355 7.09035576,11.8057097 L12.3690965,10.5536653 C12.7031282,10.5092909 13.0227935,10.6974773 13.1278033,11.0003148 C13.2328131,11.3031523 13.0929677,11.6335476 12.7958883,11.7844887 L9.17938933,13.1638597 L11.0437956,15.0949791 L15.2218628,14.14003 L15.3117137,14.0339245 L18.1195545,10.8295395 L18.1420172,10.8295395 L18.5238836,10.3838965 C18.7785418,10.0973681 19.2305446,10.0594109 19.5347062,10.2990122 L19.557169,10.2990122 C19.8405387,10.5226747 19.8806056,10.9201231 19.6470199,11.1902981 Z" id="Path" fill="#C1395B"></path>
                        </g>
                    </g>
                </g>
            </g>
        </g>
    </g>
</svg>