<?xml version="1.0" standalone="no"?>
<!DOCTYPE svg PUBLIC "-//W3C//DTD SVG 20010904//EN"
 "http://www.w3.org/TR/2001/REC-SVG-20010904/DTD/svg10.dtd">
<svg version="1.0" xmlns="http://www.w3.org/2000/svg"
 width="326.000000pt" height="326.000000pt" viewBox="0 0 326.000000 326.000000"
 preserveAspectRatio="xMidYMid meet">
<metadata>
Created by potrace 1.11, written by Peter Selinger 2001-2013
</metadata>
<g transform="translate(0.000000,326.000000) scale(0.100000,-0.100000)"
fill="#000000" stroke="none">
<path d="M1019 3256 c-2 -2 -40 -6 -83 -10 -44 -4 -82 -8 -85 -10 -3 -2 -28
-7 -56 -11 -118 -15 -287 -90 -401 -176 -226 -170 -353 -416 -382 -739 -13
-144 -8 -1317 6 -1415 38 -261 124 -447 281 -602 115 -114 271 -204 423 -242
166 -43 234 -46 908 -46 673 0 742 3 907 46 316 80 587 348 668 659 47 181 50
235 50 925 0 545 -4 680 -21 785 -71 437 -379 744 -819 815 -22 4 -53 9 -70
12 -34 5 -1320 14 -1326 9z"/>
</g>
</svg>
