<?xml version="1.0" encoding="UTF-8"?>
<svg width="32px" height="32px" viewBox="0 0 32 32" version="1.1" xmlns="http://www.w3.org/2000/svg" xmlns:xlink="http://www.w3.org/1999/xlink">
    <!-- Generator: Sketch 52.2 (67145) - http://www.bohemiancoding.com/sketch -->
    <title>ico_deny</title>
    <desc>Created with Sketch.</desc>
    <g id="Desktop-/-English" stroke="none" stroke-width="1" fill="none" fill-rule="evenodd">
        <g id="11_01_1" transform="translate(-944.000000, -150.000000)" fill="#DF2700">
            <g id="Group-2" transform="translate(806.000000, 150.000000)">
                <path d="M154,32 C162.836556,32 170,24.836556 170,16 C170,7.163444 162.836556,0 154,0 C145.163444,0 138,7.163444 138,16 C138,24.836556 145.163444,32 154,32 Z M154,14.5857864 L157.535534,11.0502525 C157.926058,10.6597282 158.559223,10.6597282 158.949747,11.0502525 C159.340272,11.4407768 159.340272,12.0739418 158.949747,12.4644661 L155.414214,16 L158.949747,19.5355339 C159.340272,19.9260582 159.340272,20.5592232 158.949747,20.9497475 C158.559223,21.3402718 157.926058,21.3402718 157.535534,20.9497475 L154,17.4142136 L150.464466,20.9497475 C150.073942,21.3402718 149.440777,21.3402718 149.050253,20.9497475 C148.659728,20.5592232 148.659728,19.9260582 149.050253,19.5355339 L152.585786,16 L149.050253,12.4644661 C148.659728,12.0739418 148.659728,11.4407768 149.050253,11.0502525 C149.440777,10.6597282 150.073942,10.6597282 150.464466,11.0502525 L154,14.5857864 Z" id="ico_deny"></path>
            </g>
        </g>
    </g>
</svg>