<?xml version="1.0" encoding="UTF-8"?>
<svg width="16px" height="16px" viewBox="0 0 16 16" version="1.1" xmlns="http://www.w3.org/2000/svg" xmlns:xlink="http://www.w3.org/1999/xlink">
    <!-- Generator: sketchtool 52.3 (67297) - http://www.bohemiancoding.com/sketch -->
    <title>9CDEFBDB-753A-4203-8B40-DC1B89B6D11C</title>
    <desc>Created with sketchtool.</desc>
    <g id="All-screens" stroke="none" stroke-width="1" fill="none" fill-rule="evenodd">
        <g id="styleguides" transform="translate(-538.000000, -3001.000000)">
            <g id="Group-7" transform="translate(29.000000, 2936.000000)">
                <g id="icons-/-24px-/-export" transform="translate(505.000000, 61.000000)">
                    <g id="ico_export">
                        <rect id="container" fill-opacity="0" fill="#67696d" x="0" y="0" width="24" height="24"></rect>
                        <path d="M12,16 C11.7,16 11.5,15.9 11.3,15.7 L5.6,10 L7,8.6 L11,12.6 L11,4 L13,4 L13,12.6 L17,8.6 L18.4,10 L12.7,15.7 C12.5,15.9 12.3,16 12,16 Z M18,18 L18,15 L20,15 L20,19 C20,19.6 19.6,20 19,20 L5,20 C4.4,20 4,19.6 4,19 L4,15 L6,15 L6,18 L18,18 Z" id="icon" fill="#67696d"></path>
                    </g>
                </g>
            </g>
        </g>
    </g>
</svg>