<?xml version="1.0" encoding="UTF-8"?>
<svg width="20px" height="16px" viewBox="0 0 20 16" version="1.1" xmlns="http://www.w3.org/2000/svg" xmlns:xlink="http://www.w3.org/1999/xlink">
    <!-- Generator: sketchtool 52.3 (67297) - http://www.bohemiancoding.com/sketch -->
    <title>2572F195-8EFB-4FB4-B52A-419A3A3B5200</title>
    <desc>Created with sketchtool.</desc>
    <g id="All-screens" stroke="none" stroke-width="1" fill="none" fill-rule="evenodd">
        <g id="styleguides" transform="translate(-188.000000, -3001.000000)">
            <g id="Group-7" transform="translate(29.000000, 2936.000000)">
                <g id="icons-/-24px-/-logout" transform="translate(157.000000, 61.000000)">
                    <g id="ico_logout">
                        <rect id="container" fill-opacity="0" fill="#EAF6ED" x="0" y="0" width="24" height="24"></rect>
                        <path d="M19,22 L5,22 C4.448,22 4,21.552 4,21 L4,9 C4,8.448 4.448,8 5,8 L9,8 L9,10 L6,10 L6,20 L18,20 L18,10 L15,10 L15,8 L19,8 C19.552,8 20,8.448 20,9 L20,21 C20,21.552 19.552,22 19,22 Z M13,6 L13,12 L11,12 L11,6 L8,6 L12,2 L16,6 L13,6 Z" id="icon" fill="#ffffff" transform="translate(12.000000, 12.000000) rotate(-270.000000) translate(-12.000000, -12.000000) "></path>
                    </g>
                </g>
            </g>
        </g>
    </g>
</svg>