<?xml version="1.0" encoding="UTF-8"?>
<svg width="261px" height="67px" viewBox="0 0 261 67" version="1.1" xmlns="http://www.w3.org/2000/svg" xmlns:xlink="http://www.w3.org/1999/xlink">
    <!-- Generator: Sketch 53.1 (72631) - https://sketchapp.com -->
    <title>Group</title>
    <desc>Created with Sketch.</desc>
    <g id="Page-1" stroke="none" stroke-width="1" fill="none" fill-rule="evenodd">
        <g id="Group">
            <g id="logo">
                <rect id="Background" x="0" y="0" width="175" height="67"></rect>
                <rect id="container" fill-opacity="0" fill="#FFFFFF" fill-rule="nonzero" x="0" y="0" width="175" height="56"></rect>
                <g id="Group-3" fill-rule="nonzero">
                    <path d="M26.4246582,-4.6203015e-15 L40.8830341,1.06758782e-15 C50.0714635,-6.20299266e-16 53.40341,0.956706269 56.7625624,2.75320064 C60.1217148,4.54969502 62.7579973,7.1859775 64.5544917,10.5451299 C66.350986,13.9042823 67.3076923,17.2362288 67.3076923,26.4246582 L67.3076923,40.5753418 C67.3076923,49.7637712 66.350986,53.0957177 64.5544917,56.4548701 C62.7579973,59.8140225 60.1217148,62.450305 56.7625624,64.2467994 C53.40341,66.0432937 50.0714635,67 40.8830341,67 L26.4246582,67 C17.2362288,67 13.9042823,66.0432937 10.5451299,64.2467994 C7.1859775,62.450305 4.54969502,59.8140225 2.75320064,56.4548701 C0.956706269,53.0957177 1.91311194e-15,49.7637712 -3.29262843e-15,40.5753418 L7.11725211e-16,26.4246582 C-4.13532844e-16,17.2362288 0.956706269,13.9042823 2.75320064,10.5451299 C4.54969502,7.1859775 7.1859775,4.54969502 10.5451299,2.75320064 C13.9042823,0.956706269 17.2362288,-2.93241441e-15 26.4246582,-4.6203015e-15 Z" id="Rectangle" fill="#FFFFFF"></path>
                    <g id="Group-2" transform="translate(11.778846, 14.656250)" fill="#FBC605" stroke="#FFFFFF" stroke-width="2.06129804">
                        <g id="Group-Copy">
                            <path d="M19.9572486,15.4104259 C15.1270339,16.1745193 11.1863443,19.7566699 9.92801838,24.3848821 C5.01885978,23.232962 1.1984244,19.1266064 0.512139868,14.0831645 C0.283815661,12.4057479 0.401487269,10.7861451 0.79785479,9.27806927 C0.925022703,8.79423854 1.4663121,8.55642344 1.92832799,8.75446602 C2.91346644,9.17597279 4.03939793,9.33178268 5.22065572,9.12225937 C7.50307203,8.7179737 9.34329082,6.92000951 9.78837852,4.66035599 C10.0138125,3.51638333 9.88581887,2.42448398 9.50142495,1.46010273 C9.31645344,0.996773307 9.5844144,0.472760026 10.0736806,0.363283073 C11.2169531,0.107836849 12.4196808,0.00861054687 13.6583293,0.0910257812 C17.1650198,0.324071032 20.2819857,2.03393341 22.3930979,4.5854071 C20.8321074,6.47579479 19.8245011,8.82878579 19.6211832,11.3865052 C19.5101623,12.7835178 19.6338487,14.1364103 19.9572486,15.4104259 Z" id="Combined-Shape"></path>
                        </g>
                        <path d="M19.7617472,15.275 C21.2313937,20.8802801 26.5738517,24.9331376 32.7817749,24.4465958 C33.1288905,24.4193854 33.4722606,24.3776704 33.8112498,24.3220605 C34.0719751,25.3167053 34.2107414,26.3602251 34.2107414,27.4359319 C34.2107414,32.5243551 31.1046238,36.8899024 26.6727395,38.7711018 C26.1966856,38.9732447 25.6413582,38.7825826 25.3820678,38.3368843 L21.7990705,32.1737828 L18.2449751,38.2872711 C17.9687565,38.7624913 17.3758567,38.9646341 16.8688366,38.7465003 C12.2139955,36.742703 9.0364492,31.9917313 9.41877871,26.5515058 C9.81872359,20.8646271 14.1894533,16.1934497 19.7617472,15.275 Z" id="Combined-Shape"></path>
                        <path d="M40.0832436,12.3881988 L31.9928045,4.35373852 L34.6336031,1.73121195 C35.1397975,1.22852003 34.8606887,0.373205703 34.1550719,0.249787865 C33.0212956,0.0513352604 31.8342575,0.00582236979 30.6162531,0.137030703 C24.7479494,0.768470807 20.0856764,5.54322406 19.6211832,11.3865052 C19.0175485,18.9822376 25.3524099,25.2736772 33.0010644,24.6742191 C38.8854705,24.2129398 43.6934911,19.5833358 44.3293307,13.7556357 C44.4812716,12.3640073 44.3978693,11.0137915 44.1158703,9.73738044 C44.0097594,9.25764997 43.4152081,9.07928865 43.0654963,9.4265807 L40.0832436,12.3881988 Z" id="Stroke-25"></path>
                    </g>
                </g>
                <g id="Token-4-Hope" transform="translate(77.000000, 13.000000)" fill="#222222" font-family="AvenirNext-Bold, Avenir Next" font-size="22.8799991" font-weight="bold">
                    <text id="Token">
                        <tspan x="0" y="23">Token</tspan>
                    </text>
                    <text id="4">
                        <tspan x="0" y="44.1199992">4</tspan>
                    </text>
                    <text id="Hope">
                        <tspan x="17.9484792" y="44.1199992">Hope</tspan>
                    </text>
                </g>
            </g>
            <g id="logo_hilfswerk" transform="translate(188.000000, 3.000000)">
                <path d="M31.449127,26.8195589 C31.5066541,26.560463 31.4263838,26.266463 31.2364108,26.1053671 C31.0303838,25.9107096 30.6852216,25.8798329 30.4283568,25.9979699 C29.9239919,26.3725178 29.5774919,26.9108466 29.1801541,27.3766822 C28.9460324,27.8398329 28.2383162,28.188874 28.5032081,28.8117781 C28.6196,29.1030932 28.9339919,29.2628466 29.2470459,29.2547918 C29.453073,29.2453945 29.6216405,29.1232301 29.7714784,28.9849562 L31.3969514,26.9658877 L31.449127,26.8195589 Z M33.5361541,28.0492575 C33.4398297,27.8505726 33.2391541,27.7472027 33.0451676,27.7042438 C32.819073,27.6586 32.6117081,27.7592849 32.4444784,27.874737 L30.6986,29.9877781 L30.6223432,30.186463 C30.6036135,30.4321342 30.6464243,30.6791479 30.8297081,30.8657507 C31.0638297,31.0604082 31.4959514,31.1409562 31.7554919,30.9422712 C32.1595189,30.5744356 32.4525054,30.1086 32.819073,29.7098877 C33.0973432,29.1916959 33.9361676,28.7352575 33.5361541,28.0492575 Z M35.6686676,30.0320795 C35.6271946,29.8052027 35.4760189,29.5702712 35.2485865,29.4722712 C34.9783432,29.385011 34.6706405,29.3957507 34.4659514,29.6024904 L33.561573,30.6925726 C33.2685865,31.2349288 32.3160459,31.7155315 32.7976676,32.4512027 C32.8832892,32.6029014 33.0652351,32.6955315 33.2391541,32.7304356 C33.4839784,32.7613123 33.7354919,32.7411753 33.9040595,32.5478603 L35.5054514,30.5945726 C35.6352216,30.442874 35.7315459,30.2388192 35.6686676,30.0320795 Z M36.2171811,31.7061342 L35.3021,32.8096411 L35.2713297,32.8915315 L36.4098297,34.2944082 C36.5730459,34.460874 36.7844243,34.576326 37.0453027,34.5669288 C37.2259108,34.5347096 37.4252486,34.4689288 37.5403027,34.3078329 C37.7008432,34.1172027 37.7878027,33.8017233 37.670073,33.5426274 C37.2700595,32.9371753 36.6814108,32.2565452 36.2171811,31.7061342 Z M39.1309919,22.1316685 L36.9476405,22.1316685 C36.0914243,22.9411753 35.5388973,24.4084904 34.1836676,24.4863534 C33.4037081,24.5467644 32.6023432,24.0956959 32.2812622,23.3721068 C31.9454649,22.7102712 32.1394514,21.8631753 32.5581946,21.3047096 L35.3368838,17.898874 L24.915127,17.9029014 L24.915127,1.0415315 L13.6505324,1.0415315 L13.6505324,46.8545178 L24.766627,46.8545178 L24.766627,27.2639151 L27.6028432,27.2639151 C27.6028432,27.2639151 28.760073,25.9711205 29.3433703,25.3173397 C29.8825189,24.7132301 30.8216811,24.6259699 31.5374243,24.8931205 C32.1795865,25.1736959 32.5929784,25.7992849 32.6678973,26.4919973 C33.0772757,26.4275589 33.4652486,26.5456959 33.8197757,26.6853123 C34.3442081,26.9860247 34.749573,27.5391205 34.8285054,28.1781342 C35.3529378,28.1553123 35.8305459,28.3258055 36.2238703,28.6627644 C36.7215459,29.1030932 36.9369378,29.7649288 36.8767351,30.463011 C37.4118703,31.1678055 37.9563703,31.7813123 38.4981946,32.5062438 C38.7122486,32.7129836 39.0025595,32.8821342 39.3276541,32.7989014 C39.551073,32.7304356 39.7249919,32.5357781 39.8226541,32.3236685 C39.9163027,32.1478055 39.8534243,31.9249562 39.7905459,31.7625178 C39.0279784,30.6549836 37.0372757,28.307011 36.9289108,28.090874 C37.2834378,27.8264082 37.5229108,27.5579151 37.8961676,27.3216411 L40.359127,30.3985726 C40.6039514,30.6670658 40.8434243,31.0604082 41.2487892,31.0604082 C41.4869243,31.0362438 41.7156946,30.9315315 41.8494784,30.7422438 C42.0126946,30.4750932 42.0046676,30.0992027 41.8494784,29.8333945 C40.9517892,28.6869288 40.0581135,27.4961616 39.1189514,26.4195041 L39.1189514,26.3456685 L39.9644649,25.6516137 C39.9644649,25.6516137 41.7999784,27.814326 42.7364649,28.9084356 C42.8528568,29.0279151 42.9946676,29.1916959 43.1873162,29.2453945 C43.4856541,29.3299699 43.7987081,29.2252575 43.9819919,28.9849562 C44.4555865,28.4009836 43.7706135,27.8868192 43.5083973,27.4330658 C42.0126946,25.6073123 40.5959243,23.8486822 39.1309919,22.1316685 Z M59.0473838,46.7242986 L59.0366811,1.0415315 L47.8563703,1.0415315 C47.8603838,1.042874 47.8563703,17.8894767 47.8563703,17.8894767 L36.9784108,17.8894767 L33.5361541,22.1316685 C33.4277892,22.2726274 33.3234378,22.4471479 33.3354784,22.6485178 C33.3662486,22.9210384 33.5361541,23.211011 33.8197757,23.2969288 C34.0324919,23.4029836 34.3228027,23.3278055 34.5047486,23.211011 L36.3696946,20.9476137 L39.7129514,20.9556685 L39.798573,20.9905726 C41.5538162,23.0834767 43.1538703,25.2341068 44.9198162,27.3256685 L47.7466676,27.3216411 L47.7426541,46.728326 L59.0473838,46.7242986 Z" id="Fill-4" fill="#FEFEFE" fill-rule="nonzero"></path>
                <path d="M31.449127,26.8195589 C31.5066541,26.560463 31.4263838,26.266463 31.2364108,26.1053671 C31.0303838,25.9107096 30.6852216,25.8798329 30.4283568,25.9979699 C29.9239919,26.3725178 29.5774919,26.9108466 29.1801541,27.3766822 C28.9460324,27.8398329 28.2383162,28.188874 28.5032081,28.8117781 C28.6196,29.1030932 28.9339919,29.2628466 29.2470459,29.2547918 C29.453073,29.2453945 29.6216405,29.1232301 29.7714784,28.9849562 L31.3969514,26.9658877 L31.449127,26.8195589 Z M33.5361541,28.0492575 C33.4398297,27.8505726 33.2391541,27.7472027 33.0451676,27.7042438 C32.819073,27.6586 32.6117081,27.7592849 32.4444784,27.874737 L30.6986,29.9877781 L30.6223432,30.186463 C30.6036135,30.4321342 30.6464243,30.6791479 30.8297081,30.8657507 C31.0638297,31.0604082 31.4959514,31.1409562 31.7554919,30.9422712 C32.1595189,30.5744356 32.4525054,30.1086 32.819073,29.7098877 C33.0973432,29.1916959 33.9361676,28.7352575 33.5361541,28.0492575 Z M35.6686676,30.0320795 C35.6271946,29.8052027 35.4760189,29.5702712 35.2485865,29.4722712 C34.9783432,29.385011 34.6706405,29.3957507 34.4659514,29.6024904 L33.561573,30.6925726 C33.2685865,31.2349288 32.3160459,31.7155315 32.7976676,32.4512027 C32.8832892,32.6029014 33.0652351,32.6955315 33.2391541,32.7304356 C33.4839784,32.7613123 33.7354919,32.7411753 33.9040595,32.5478603 L35.5054514,30.5945726 C35.6352216,30.442874 35.7315459,30.2388192 35.6686676,30.0320795 Z M36.2171811,31.7061342 L35.3021,32.8096411 L35.2713297,32.8915315 L36.4098297,34.2944082 C36.5730459,34.460874 36.7844243,34.576326 37.0453027,34.5669288 C37.2259108,34.5347096 37.4252486,34.4689288 37.5403027,34.3078329 C37.7008432,34.1172027 37.7878027,33.8017233 37.670073,33.5426274 C37.2700595,32.9371753 36.6814108,32.2565452 36.2171811,31.7061342 Z M39.1309919,22.1316685 L36.9476405,22.1316685 C36.0914243,22.9411753 35.5388973,24.4084904 34.1836676,24.4863534 C33.4037081,24.5467644 32.6023432,24.0956959 32.2812622,23.3721068 C31.9454649,22.7102712 32.1394514,21.8631753 32.5581946,21.3047096 L35.3368838,17.898874 L24.915127,17.9029014 L24.915127,1.0415315 L13.6505324,1.0415315 L13.6505324,46.8545178 L24.766627,46.8545178 L24.766627,27.2639151 L27.6028432,27.2639151 C27.6028432,27.2639151 28.760073,25.9711205 29.3433703,25.3173397 C29.8825189,24.7132301 30.8216811,24.6259699 31.5374243,24.8931205 C32.1795865,25.1736959 32.5929784,25.7992849 32.6678973,26.4919973 C33.0772757,26.4275589 33.4652486,26.5456959 33.8197757,26.6853123 C34.3442081,26.9860247 34.749573,27.5391205 34.8285054,28.1781342 C35.3529378,28.1553123 35.8305459,28.3258055 36.2238703,28.6627644 C36.7215459,29.1030932 36.9369378,29.7649288 36.8767351,30.463011 C37.4118703,31.1678055 37.9563703,31.7813123 38.4981946,32.5062438 C38.7122486,32.7129836 39.0025595,32.8821342 39.3276541,32.7989014 C39.551073,32.7304356 39.7249919,32.5357781 39.8226541,32.3236685 C39.9163027,32.1478055 39.8534243,31.9249562 39.7905459,31.7625178 C39.0279784,30.6549836 37.0372757,28.307011 36.9289108,28.090874 C37.2834378,27.8264082 37.5229108,27.5579151 37.8961676,27.3216411 L40.359127,30.3985726 C40.6039514,30.6670658 40.8434243,31.0604082 41.2487892,31.0604082 C41.4869243,31.0362438 41.7156946,30.9315315 41.8494784,30.7422438 C42.0126946,30.4750932 42.0046676,30.0992027 41.8494784,29.8333945 C40.9517892,28.6869288 40.0581135,27.4961616 39.1189514,26.4195041 L39.1189514,26.3456685 L39.9644649,25.6516137 C39.9644649,25.6516137 41.7999784,27.814326 42.7364649,28.9084356 C42.8528568,29.0279151 42.9946676,29.1916959 43.1873162,29.2453945 C43.4856541,29.3299699 43.7987081,29.2252575 43.9819919,28.9849562 C44.4555865,28.4009836 43.7706135,27.8868192 43.5083973,27.4330658 C42.0126946,25.6073123 40.5959243,23.8486822 39.1309919,22.1316685 Z M59.0473838,46.7242986 L59.0366811,1.0415315 L47.8563703,1.0415315 C47.8603838,1.042874 47.8563703,17.8894767 47.8563703,17.8894767 L36.9784108,17.8894767 L33.5361541,22.1316685 C33.4277892,22.2726274 33.3234378,22.4471479 33.3354784,22.6485178 C33.3662486,22.9210384 33.5361541,23.211011 33.8197757,23.2969288 C34.0324919,23.4029836 34.3228027,23.3278055 34.5047486,23.211011 L36.3696946,20.9476137 L39.7129514,20.9556685 L39.798573,20.9905726 C41.5538162,23.0834767 43.1538703,25.2341068 44.9198162,27.3256685 L47.7466676,27.3216411 L47.7426541,46.728326 L59.0473838,46.7242986 Z" id="Stroke-6" stroke="#FEFEFE" stroke-width="0.585899978"></path>
                <path d="M47.7422527,46.727789 L47.7462662,27.3211041 L44.9207527,27.3251315 C43.1534689,25.2349123 41.5534149,23.0829397 39.7995095,20.9900356 L39.71255,20.9551315 L36.3692932,20.9470767 L34.5043473,23.210474 C34.3237392,23.3272685 34.0320905,23.4024466 33.8207122,23.2977342 C33.5357527,23.210474 33.3658473,22.9218438 33.335077,22.6479808 C33.3243743,22.4479534 33.4273878,22.2734329 33.5357527,22.1311315 L36.9780095,17.8889397 L47.8559689,17.8889397 C47.8559689,17.8889397 47.8599824,1.0436795 47.8559689,1.042337 L59.0362797,1.042337 L59.0469824,46.7237616 L47.7422527,46.727789 Z M43.9815905,28.9857616 C43.7996446,29.2247205 43.4852527,29.3294329 43.1882527,29.2448575 C42.9942662,29.1911589 42.8537932,29.0273781 42.7360635,28.9092411 C41.8009149,27.813789 39.9654014,25.6510767 39.9654014,25.6510767 L39.1198878,26.346474 L39.1198878,26.4189671 C40.0577122,27.4956247 40.9513878,28.6863918 41.8504149,29.8342 C42.0042662,30.0986658 42.0136311,30.4758986 41.8504149,30.7430493 C41.7152932,30.9309945 41.486523,31.0370493 41.2483878,31.0612137 C40.8443608,31.0612137 40.60355,30.6678712 40.3587257,30.3980356 L37.8971041,27.3211041 C37.5225095,27.5587205 37.2843743,27.8258712 36.9285095,28.0916795 C37.0368743,28.3078164 39.027577,30.655789 39.7914824,31.7633233 C39.8543608,31.9244192 39.9159014,32.1472685 39.8222527,32.324474 C39.7245905,32.5365836 39.5506716,32.7298986 39.3272527,32.7997068 C39.0021581,32.8829397 38.7118473,32.7124466 38.4977932,32.5057068 C37.9573068,31.7807753 37.4114689,31.1672685 36.8763338,30.4638164 C36.9365365,29.7643918 36.7224824,29.1038986 36.2248068,28.6622274 C35.8314824,28.3252685 35.3525365,28.1561178 34.8294419,28.1775973 C34.7491716,27.5385836 34.3438068,26.9854877 33.8207122,26.6861178 C33.4648473,26.5465014 33.0768743,26.4270219 32.6674959,26.4914603 C32.5939149,25.8000904 32.1791851,25.1745014 31.5383608,24.8925836 C30.8226176,24.6254329 29.8821176,24.7126932 29.3429689,25.3181452 C28.7610095,25.971926 27.6024419,27.2633781 27.6024419,27.2633781 L24.7662257,27.2633781 L24.7662257,46.8553233 L13.6514689,46.8553233 L13.6514689,1.042337 L24.9160635,1.042337 L24.9160635,17.9023644 L35.3378203,17.898337 L32.5577932,21.3041726 C32.13905,21.8626384 31.9450635,22.7110767 32.2808608,23.3729123 C32.6032797,24.0951589 33.4033068,24.5462274 34.1832662,24.4858164 C35.5384959,24.4092959 36.091023,22.9419808 36.948577,22.1311315 L39.1305905,22.1311315 C40.595523,23.8481452 42.0136311,25.6067753 43.5079959,27.4325288 C43.7702122,27.8862822 44.4551851,28.4004466 43.9815905,28.9857616 Z M37.5399014,34.3072959 C37.4248473,34.4697342 37.2268473,34.5341726 37.0449014,34.5663918 C36.7853608,34.5771315 36.5726446,34.460337 36.4094284,34.2952137 L35.2722662,32.892337 L35.3016986,32.8091041 L36.2181176,31.7069397 C36.6810095,32.2573507 37.2696581,32.9366384 37.6710095,33.5420904 C37.7887392,33.8011863 37.7004419,34.1166658 37.5399014,34.3072959 Z M33.9036581,32.5473233 C33.7350905,32.7406384 33.4849149,32.7607753 33.2387527,32.7298986 C33.0648338,32.696337 32.8842257,32.6037068 32.7972662,32.4506658 C32.3169824,31.716337 33.269523,31.2343918 33.5611716,30.6920356 L34.46555,29.6032959 C34.6702392,29.3965562 34.9779419,29.384474 35.2481851,29.4717342 C35.4756176,29.5710767 35.6267932,29.8060082 35.6696041,30.0315425 C35.7311446,30.2382822 35.6348203,30.4436795 35.5063878,30.5940356 L33.9036581,32.5473233 Z M31.7564284,30.9430767 C31.49555,31.1417616 31.0634284,31.0612137 30.8293068,30.8665562 C30.6473608,30.6799534 30.6032122,30.4329397 30.6219419,30.185926 L30.6995365,29.9872411 L32.444077,27.8742 C32.6113068,27.7587479 32.8200095,27.658063 33.0461041,27.7050493 C33.2387527,27.7466658 33.4407662,27.8500356 33.5357527,28.0487205 C33.9371041,28.7347205 33.0982797,29.1911589 32.8200095,29.7106932 C32.4521041,30.1094055 32.1604554,30.5752411 31.7564284,30.9430767 Z M29.771077,28.9857616 C29.6212392,29.1226932 29.4526716,29.2448575 29.2466446,29.2542548 C28.9335905,29.2623096 28.6191986,29.1038986 28.5028068,28.8112411 C28.2379149,28.188337 28.9456311,27.8406384 29.1797527,27.3761452 C29.5770905,26.9103096 29.9249284,26.3719808 30.4292932,25.9974329 C30.6848203,25.8806384 31.0299824,25.9115151 31.2360095,26.1048301 C31.4273203,26.2672685 31.5062527,26.5612685 31.4487257,26.8190219 L31.39655,26.9653507 L29.771077,28.9857616 Z M46.8124554,0.0032685 L46.8124554,16.739789 L26.0559014,16.739789 L26.0465365,0.0032685 L12.4848743,0.0032685 L12.4888878,47.9185562 L25.8859959,47.9131863 L25.8859959,28.4971041 L27.2479149,28.4971041 C27.3121311,29.2502274 27.7322122,30.0583918 28.4332392,30.3335973 C28.7422797,30.4544192 29.0861041,30.4758986 29.408523,30.4973781 C29.4339419,30.7430493 29.4861176,30.9739534 29.5944824,31.1874055 C29.8901446,31.8680356 30.6660905,32.3432685 31.4754824,32.3110493 C31.5463878,32.9245562 31.9383743,33.4776521 32.4748473,33.7662822 C33.0327257,34.0804192 33.8287392,34.0643096 34.3772527,33.734063 L34.4441446,33.8011863 C35.2281176,34.6093507 35.8114149,36.0122274 37.2107932,35.7866932 C37.8971041,35.7007753 38.5834149,35.1933233 38.8081716,34.5140356 C38.8830905,34.3717342 38.8643608,34.1918438 38.9392797,34.0482 L39.4356176,34.0267205 C40.1339689,33.9287205 40.7788068,33.3232685 40.9821581,32.6762 C41.0370095,32.5473233 41.0156041,32.3741452 41.0891851,32.2774877 C41.486523,32.2868849 41.8718203,32.2143918 42.2062797,32.0425562 C42.7574689,31.7270767 43.1226986,31.1229671 43.1962797,30.5054329 C43.5748878,30.5497342 43.9521581,30.4638164 44.2999959,30.2892959 C44.9381446,29.9375699 45.3180905,29.2488849 45.3528743,28.5145562 L46.5957257,28.5185836 L46.5957257,47.8997616 L60.0530365,47.8957342 L60.0530365,0.0032685 L46.8124554,0.0032685 Z" id="Fill-8" fill="#1A171B" fill-rule="nonzero"></path>
                <polygon id="Fill-10" fill="#1A171B" fill-rule="nonzero" points="67.0233054 60.9075836 68.5471027 60.9075836 68.5471027 59.0200767 69.5290757 57.9877205 71.2428459 60.9075836 73.0462514 60.9075836 70.6020216 56.8587068 72.8643054 54.4731452 70.9445081 54.4731452 68.5471027 57.0949808 68.5471027 54.4731452 67.0233054 54.4731452"></polygon>
                <polygon id="Fill-12" fill="#1A171B" fill-rule="nonzero" points="4.2338932 54.4732795 4.2338932 56.7984301 1.892677 56.7984301 1.892677 54.4732795 0.2792446 54.4732795 0.2792446 60.9077178 1.892677 60.9077178 1.892677 58.1623753 4.2338932 58.1623753 4.2338932 60.9077178 5.8406365 60.9077178 5.8406365 54.4732795"></polygon>
                <polygon id="Fill-14" fill="#1A171B" fill-rule="nonzero" points="9.6215 60.9070466 11.2202162 60.9070466 11.2202162 54.4726082 9.6215 54.4726082"></polygon>
                <polygon id="Fill-16" fill="#1A171B" fill-rule="nonzero" points="15.0410811 60.9075836 19.1415541 60.9075836 19.1415541 59.5463233 16.6344459 59.5463233 16.6344459 54.4637479 15.0410811 54.4637479"></polygon>
                <polygon id="Fill-17" fill="#1A171B" fill-rule="nonzero" points="21.8896068 54.4732795 21.8896068 60.9077178 23.4789581 60.9077178 23.4789581 58.3100466 26.5452824 58.3100466 26.5452824 57.0588685 23.4789581 57.0588685 23.4789581 55.7137178 26.8088365 55.7137178 26.8088365 54.4732795"></polygon>
                <path d="M29.3875189,59.7474247 C29.7875324,60.2159452 30.5059514,61.0523014 32.3080189,61.0523014 C33.2097216,61.0523014 34.1341676,60.8589863 34.7147892,60.186411 C35.0492486,59.7930685 35.2231676,59.284274 35.2231676,58.8238082 C35.2231676,58.0921644 34.8525865,57.5189315 34.1141,57.2423836 C33.7555595,57.1135068 32.8324514,56.9456986 32.1568432,56.8597808 C31.8852622,56.8275616 31.3380865,56.7523836 31.3380865,56.2610411 C31.3380865,55.952274 31.6551541,55.5844384 32.2933027,55.5844384 C32.6986676,55.5844384 33.1093838,55.7401644 33.3394919,55.8676986 C33.5910054,56.0153699 33.7716135,56.1872055 33.9696135,56.3845479 L35.1562757,55.540137 C34.5983973,55.0393973 33.7970324,54.3144658 32.3160459,54.3144658 C31.2109919,54.3144658 29.7433838,54.813863 29.7433838,56.4731507 C29.7433838,57.8545479 31.0745324,58.1364658 31.4678568,58.2196986 C31.8116811,58.2935342 32.1635324,58.3351507 32.5207351,58.382137 C32.9903162,58.4425479 33.6338162,58.5311507 33.6338162,59.0386027 C33.6338162,59.4843014 33.0946676,59.7876986 32.4578568,59.7876986 C32.0859378,59.7876986 31.647127,59.7044658 31.2230324,59.4762466 C30.8992757,59.304411 30.7668297,59.1594247 30.6089649,58.9741644 L29.3875189,59.7474247 Z" id="Fill-18" fill="#1A171B" fill-rule="nonzero"></path>
                <path d="M41.6057243,54.4732795 L41.0772784,56.4561014 C40.7414811,57.7314438 40.6786027,57.9798 40.4418054,59.2578274 C40.2518324,57.8630055 40.1822649,57.5260466 39.4946162,54.4732795 L37.8932243,54.4732795 L39.5173595,60.9077178 L41.170927,60.9077178 L41.7876703,58.7356082 C42.1502243,57.509937 42.1716297,57.4441562 42.3321703,56.6494164 C42.5221432,57.5555808 42.5381973,57.5958548 42.8806838,58.783937 C43.0947378,59.4833616 43.2873865,60.1948685 43.481373,60.9077178 L45.1389541,60.9077178 L46.7617514,54.4732795 L45.1750757,54.4732795 C45.0372784,55.1203479 44.8968054,55.7781562 44.7549946,56.4346219 C44.4646838,57.7421836 44.4205351,57.9610055 44.2332378,59.2403753 C44.0298865,57.9878548 43.9683459,57.7878274 43.6111432,56.5514164 C43.4024405,55.8573616 43.2071162,55.1659918 43.0224946,54.4732795 L41.6057243,54.4732795 Z" id="Fill-19" fill="#1A171B" fill-rule="nonzero"></path>
                <polygon id="Fill-20" fill="#1A171B" fill-rule="nonzero" points="49.6393068 60.9075836 54.6602122 60.9075836 54.6602122 59.6429808 51.238023 59.6429808 51.238023 58.1098849 54.1705635 58.1098849 54.1705635 56.890926 51.238023 56.890926 51.238023 55.7189534 54.3792662 55.7189534 54.3792662 54.4731452 49.6393068 54.4731452"></polygon>
                <path d="M61.1271865,55.6766658 C61.4683351,55.6874055 62.0529703,55.7129123 62.0529703,56.5331589 C62.0529703,57.3883096 61.3225108,57.4071041 61.0910649,57.4205288 L59.7666054,57.4205288 L59.7666054,55.6766658 L61.1271865,55.6766658 Z M58.1571865,60.9069123 L59.7666054,60.9069123 L59.7666054,58.605926 L60.7713216,58.605926 L62.0449432,60.9069123 L63.812227,60.9069123 L62.3352541,58.3347479 C62.7713892,58.1723096 63.6503486,57.8541452 63.6503486,56.5586658 C63.6503486,55.9760356 63.4403081,55.469926 63.1419703,55.1302822 C62.5519838,54.4885836 61.7158351,54.4805288 61.0455784,54.4738164 L58.1571865,54.4738164 L58.1571865,60.9069123 Z" id="Fill-21" fill="#1A171B" fill-rule="nonzero"></path>
            </g>
        </g>
    </g>
</svg>