<?xml version="1.0" encoding="UTF-8"?>
<svg width="20px" height="20px" viewBox="0 0 20 20" version="1.1" xmlns="http://www.w3.org/2000/svg" xmlns:xlink="http://www.w3.org/1999/xlink">
    <!-- Generator: Sketch 52.2 (67145) - http://www.bohemiancoding.com/sketch -->
    <title>Group 3</title>
    <desc>Created with Sketch.</desc>
    <g id="Symbols" stroke="none" stroke-width="1" fill="none" fill-rule="evenodd">
        <g id="Menu-Open-/-German" transform="translate(-325.000000, -106.000000)" fill="#000000" fill-rule="nonzero">
            <g id="Menu-Open">
                <g id="menu-open" transform="translate(0.000000, 76.000000)">
                    <g id="Group-3" transform="translate(326.000000, 31.000000)">
                        <g id="Group-2">
                            <g id="Group-4">
                                <g id="Group-5">
                                    <path d="M20.7797758,7.74131423 C21.6082029,7.74131423 22.2797758,8.41288711 22.2797758,9.24131423 C22.2797758,10.0697414 21.6082029,10.7413142 20.7797758,10.7413142 L-2.29714731,10.7413142 C-3.12557443,10.7413142 -3.79714731,10.0697414 -3.79714731,9.24131423 C-3.79714731,8.41288711 -3.12557443,7.74131423 -2.29714731,7.74131423 L20.7797758,7.74131423 Z" id="Line" transform="translate(9.241314, 9.241314) rotate(-45.000000) translate(-9.241314, -9.241314) "></path>
                                    <path d="M20.5384615,7.5 C21.3668887,7.5 22.0384615,8.17157288 22.0384615,9 C22.0384615,9.82842712 21.3668887,10.5 20.5384615,10.5 L-2.53846154,10.5 C-3.36688866,10.5 -4.03846154,9.82842712 -4.03846154,9 C-4.03846154,8.17157288 -3.36688866,7.5 -2.53846154,7.5 L20.5384615,7.5 Z" id="Line" transform="translate(9.000000, 9.000000) rotate(45.000000) translate(-9.000000, -9.000000) "></path>
                                </g>
                            </g>
                        </g>
                    </g>
                </g>
            </g>
        </g>
    </g>
</svg>