<?xml version="1.0" encoding="UTF-8"?>
<svg width="20px" height="15px" viewBox="0 0 20 15" version="1.1" xmlns="http://www.w3.org/2000/svg" xmlns:xlink="http://www.w3.org/1999/xlink">
    <!-- Generator: sketchtool 52.3 (67297) - http://www.bohemiancoding.com/sketch -->
    <title>CE566A03-5420-4D05-B083-D79778587C39</title>
    <desc>Created with sketchtool.</desc>
    <g id="All-screens" stroke="none" stroke-width="1" fill="none" fill-rule="evenodd">
        <g id="styleguides" transform="translate(-420.000000, -3002.000000)">
            <g id="Group-7" transform="translate(29.000000, 2936.000000)">
                <g id="icons-/-24px-/-card" transform="translate(389.000000, 61.000000)">
                    <g id="ico_info">
                        <rect id="container" fill-opacity="0" fill="#EAF6ED" x="0" y="0" width="24" height="24"></rect>
                        <path d="M21.0222222,5 C21.5555556,5 22,5.44444444 22,5.97777778 L22,7.91111111 L2,7.91111111 L2,5.97777778 C2,5.44444444 2.44444444,5 2.97777778,5 L21.0222222,5 Z M2,18.1111111 L2,10.4 L22,10.4 L22,18.1111111 C22,18.6444444 21.5555556,19.0888889 21.0222222,19.0888889 L2.97777778,19.0888889 C2.44444444,19.0888889 2,18.6444444 2,18.1111111 Z M5,13 L5,14 L13,14 L13,13 L5,13 Z M5,16 L5,17 L10,17 L10,16 L5,16 Z" id="icon" fill="#000000"></path>
                    </g>
                </g>
            </g>
        </g>
    </g>
</svg>
